<svg id="Componente_15_1" data-name="Componente 15 – 1" xmlns="http://www.w3.org/2000/svg" width="110.517" height="156.474" viewBox="0 0 110.517 156.474">
  <path id="Caminho_5" data-name="Caminho 5" d="M332.716-979.439a6.175,6.175,0,0,0-1.174,2.257c-.737,2.211-2.164,4.467-5.043,8.059-3.891,4.813-4.928,6.54-5.642,9.3-1.635,6.424-.023,15.4,3.477,19.342,1.957,2.211,4.536,2.625,5.273.806.391-.944,0-1.934-1.612-4.007-2.51-3.224-3.339-5.8-3.316-10.132a10.514,10.514,0,0,1,.622-4.444c.829-2.349,2.141-4.49,4.859-7.852,1.289-1.589,2.671-3.362,3.063-3.937,2.533-3.73,3.247-7.438,1.773-9.211A1.417,1.417,0,0,0,332.716-979.439Z" transform="translate(-275.216 980.266)" fill="#f69604"/>
  <path id="Caminho_6" data-name="Caminho 6" d="M190.908-978.515a10.14,10.14,0,0,0-1.467,3.331c-.443,1.444-2.119,3.983-4.611,6.964-1.141,1.351-2.469,3.051-2.981,3.8a26.118,26.118,0,0,0-3.1,6.568c-1.56,6.032.466,15.162,4.146,18.842a6.716,6.716,0,0,0,2.119,1.537,2.551,2.551,0,0,0,2.841-.582c.606-.932.256-2.026-1.118-3.424-2.376-2.469-3.494-6.032-3.47-11.249,0-4.914.745-6.894,4.239-11.319,3.959-5.007,4.868-6.312,5.916-8.431,1.723-3.494,1.677-5.17-.186-6.079C192.189-979.051,191.374-979.028,190.908-978.515Z" transform="translate(-156.677 978.914)" fill="#f69604"/>
  <path id="Caminho_7" data-name="Caminho 7" d="M8.212-710.669c-4.046.165-4.852.376-6.083,1.594s-1.3,1.443-1.429,4.03c-.2,4.06-.439,53.225-.34,70.606.1,20.974.241,25.079.934,27.44.481,1.654,1.485,2.24,4.2,2.481,4.555.376,13.892.511,35.891.511,22.055,0,30.883-.12,36.344-.526,1.952-.135,2.179-.18,2.943-.617,1.386-.782,2.009-2.045,2.391-4.811.1-.707.2-3.969.255-7.488l.085-6.225,1.839-.331A27.854,27.854,0,0,0,101-632.26a31.9,31.9,0,0,0,6.451-9.472c2.829-6.18,3.678-10.991,3.325-18.689-.5-10.585-2.928-17.155-8.672-23.44a24.453,24.453,0,0,0-8.29-6.27,28.765,28.765,0,0,0-6.946-2.06c-1.6-.331-3.042-.631-3.211-.677l-.325-.06v-4.18c0-9.337-.481-11.472-2.844-12.735-.962-.526-2.15-.662-6.918-.827C68.776-710.835,12.371-710.82,8.212-710.669Zm63.535,3.158c5.7.15,7.243.286,7.654.722a2.64,2.64,0,0,1,.4,1.007c.368,2.045.439,11.683.382,52.248-.057,40.806-.1,43.663-.523,45.031-.382,1.218.085,1.2-37.278,1.2-31.718-.015-37.7-.09-38.2-.526-.354-.316-.509-1.609-.637-5.473-.17-5.127-.17-75.538,0-84.529.141-7.427.212-8.841.509-9.157.283-.286,2.108-.406,8.05-.526C20.364-707.662,65.593-707.677,71.747-707.512Zm15.491,18.418a22.969,22.969,0,0,1,12.195,6.6,32.317,32.317,0,0,1,8.262,17.381,31.924,31.924,0,0,1,.325,6.014,34.424,34.424,0,0,1-.736,8.721,37.826,37.826,0,0,1-3.735,9.878,28.689,28.689,0,0,1-9.054,9.728A28.877,28.877,0,0,1,84.875-627c-.651.075-.835.045-1.132-.21l-.34-.286-.042-5.037-.042-5.022,1.316-.271a14.2,14.2,0,0,0,7.328-3.744,23.587,23.587,0,0,0,5.645-8.69c.905-2.406,1.16-4.285,1.16-8.841,0-4.586-.509-7.322-1.995-10.6a19.93,19.93,0,0,0-8.559-9.006,7.042,7.042,0,0,0-3.876-1.143h-1v-9.623h1.075A16.8,16.8,0,0,1,87.238-689.094Zm-2.674,12.179a15.457,15.457,0,0,1,6.847,4.39c3.353,3.7,4.8,8.57,4.626,15.577a10.446,10.446,0,0,1-.523,4,30.5,30.5,0,0,1-1.316,3.218c-2.094,4.375-3.508,5.894-7.427,7.984-2.065,1.1-2.518,1.113-2.928.075-.453-1.143-.509-3.548-.509-19.546,0-12.645.042-15.923.184-15.923A10.264,10.264,0,0,1,84.564-676.915Z" transform="translate(-0.337 760.482)" fill="#c03723"/>
  <path id="Caminho_8" data-name="Caminho 8" d="M251.546-510.725c-.287.325-1.074,2.286-4.673,11.72-5.922,15.53-8.334,22.215-8.521,23.627a.932.932,0,0,0,.175.9c.7.887,1.1.712,1.812-.825,1.812-3.886,10.333-26.438,12.482-33.047.55-1.674.575-1.8.4-2.137-.212-.4-.425-.512-1-.512A.944.944,0,0,0,251.546-510.725Z" transform="translate(-203.316 597.253)" fill="#faeee1"/>
  <path id="Caminho_9" data-name="Caminho 9" d="M386.964-447.509c-.481.592-.333,1.627.407,2.717.37.555,2.717,3.161,5.231,5.786,2.5,2.625,4.769,5.047,5.028,5.4,1.294,1.682.111,3.623-5.028,8.3-6.156,5.583-7.672,7.468-6.766,8.374.684.684,1.479.518,3.29-.7,3.882-2.625,11.165-9.317,11.868-10.944a10.565,10.565,0,0,0,.7-4.437c-.111-1.349-.592-2.181-2.4-4.233a131.9,131.9,0,0,0-9.927-9.668C388.11-447.75,387.334-447.953,386.964-447.509Z" transform="translate(-332.725 536.697)" fill="#faeee1"/>
  <path id="Caminho_10" data-name="Caminho 10" d="M134.437-446.346c-1.329.7-7.954,6.791-10.187,9.32a19.606,19.606,0,0,0-2.122,2.861,3.982,3.982,0,0,0-.627,2.621c0,1.9.332,2.621,2.233,4.891A110.764,110.764,0,0,0,133.4-417c1.218.978,1.679,1.236,2.178,1.236.867,0,1.329-.3,1.329-.849,0-1.107-1.126-2.584-5.426-7.105-4.761-5.02-6.016-6.662-6.016-7.917,0-1.2.7-2.067,6-7.29,2.861-2.842,5.444-5.463,5.7-5.832.572-.794.609-1.329.111-1.827C136.725-447.139,135.729-447.047,134.437-446.346Z" transform="translate(-107.627 536.291)" fill="#faeee1"/>
</svg>
