<svg xmlns="http://www.w3.org/2000/svg"
     xmlns:xlink="http://www.w3.org/1999/xlink" width="417"
     height="212" viewBox="0 0 417 212"><defs><style>.a{fill:#fff;}.b{clip-path:url(#a);}.c{isolation:isolate;}.d{fill:#0bb4d4;opacity:0.6;}.e{fill:#3277db;}.e,.f{opacity:0.7;}.f{fill:url(#b);}</style><clipPath id="a"><rect class="a" width="417" height="212" rx="4" transform="translate(475 84)"/></clipPath><linearGradient id="b" x1="0.5" x2="0.5" y2="1" gradientUnits="objectBoundingBox"><stop offset="0" stop-color="#5c54c1"/><stop offset="1" stop-color="#327adb"/></linearGradient></defs><g class="b" transform="translate(-475 -84)"><g transform="translate(393.38 -72.764) rotate(-7)"><g class="c" transform="matrix(1, -0.017, 0.017, 1, 0, 8.953)"><path class="d" d="M212.972,218.628c57.892,12.664,49.205,24.168,125.622,37.4s169.65-30.594,222.235,62.3,11.409,230.685-82.055,279.688S259.257,612.527,194.8,525.843,152.225,205.34,212.972,218.628Z" transform="translate(668.559 609.998) rotate(177)"/><path class="e" d="M118,361.128c59.14,3.784,53.961-9.669,131.064-1.327s154.646,76.171,230.8,1.368S559.3,136.255,453.013,45.963s-245.5-61.228-329.257,17.563S55.946,357.158,118,361.128Z" transform="translate(-66.214 -23.875) rotate(3)"/><path class="f" d="M17.99,283.917l13.582,37.146s41.9,52.923,97.873,47.453,63.613-10.783,98.613-10.783,62.387,19.826,109.387,41.783,96.636,28.517,139.33-56.539S549.714,149.86,444.2,64.116,218.512-30.526,111.959,24.424,17.99,283.917,17.99,283.917Z" transform="translate(0 0)"/></g></g></g></svg>
