<svg id="Componente_16_1" data-name="Componente 16 – 1" xmlns="http://www.w3.org/2000/svg" width="253.175" height="246.386" viewBox="0 0 253.175 246.386">
  <path id="Caminho_13" data-name="Caminho 13" d="M85.879-458.421l-4.3,8.693-3.739-1.189a47.39,47.39,0,0,0-26.08-.465c-31.867,8.122-47.031,45.577-29.868,73.775,4.457,7.3,13.526,15.831,19.827,18.626.87.414,1.587.878,1.587,1.138,0,.208-.921,3.1-2.05,6.414-3.482,10.193-4.66,16.969-4.968,28.714a107.868,107.868,0,0,0,.359,15.21A127,127,0,0,0,41.2-287.431a20.6,20.6,0,0,1,.974,3.154c-.1.051-4.047,1.76-8.863,3.881-4.765,2.07-8.761,3.83-8.863,3.882-.257.208,41.45,16.866,42.526,16.969.819.1,2.3-3.26,9.377-21.316,4.663-11.8,8.352-21.524,8.25-21.678a75.529,75.529,0,0,0-8.095,3.26c-4.3,1.914-8.095,3.571-8.453,3.725-.87.362-3.022-6.984-4.047-13.866a75.218,75.218,0,0,1,2.87-32.544c5.942-17.953,20.033-33.887,36.94-41.855a63.459,63.459,0,0,1,27.359-6.571c12.859-.516,22.338,1.552,33.816,7.3A66.9,66.9,0,0,1,184.821-368.4a70.787,70.787,0,0,1,18.644,37.977c1.025,6.311.717,19.815-.511,25.454A78.557,78.557,0,0,1,192.3-279.62a83.5,83.5,0,0,1-8.609,10.139,65.557,65.557,0,0,1-28.845,18c-9.99,3.208-8.044,3.154-79.621,3.154H10v27.938H72.918c37.4,0,65.273-.208,68.758-.516a98.1,98.1,0,0,0,85-67.518,99.09,99.09,0,0,0-23.16-100.213,96.862,96.862,0,0,0-55.9-28.611c-6.507-.93-20.135-1.087-26.182-.259a101.611,101.611,0,0,0-31.048,9.571,93.26,93.26,0,0,0-27,20.126c-2.92,3-5.584,5.484-5.892,5.484-1.435,0-5.942-2.638-8.4-4.863A20.577,20.577,0,0,1,44.48-393.6c-1.743-3.519-1.946-4.4-2.1-8.8-.153-4.036,0-5.382.921-8.02,3.177-8.744,10.4-14.28,19.265-14.745a24.975,24.975,0,0,1,5.533.1l1.333.311-4.149,8.331a89.28,89.28,0,0,0-3.895,8.536c.257.259,42.936-14.228,43.551-14.8.359-.311-13.678-43.2-14.449-44.08C90.285-466.957,88.237-463.233,85.879-458.421Z" transform="translate(-10 466.76)" fill="#241c3e"/>
  <path id="Caminho_14" data-name="Caminho 14" d="M676.079,345.173c-6.4,7.21-18.307,16.588-26.752,20.974a19.843,19.843,0,0,0-3.856,2.218c0,.15,19.771.253,43.937.253h43.935V341.39H679.4Z" transform="translate(-480.167 -122.232)" fill="#241c3e"/>
</svg>
